<?xml version="1.0" encoding="UTF-8" standalone="no"?>
<!-- Generator: Adobe Illustrator 16.0.0, SVG Export Plug-In . SVG Version: 6.00 Build 0)  -->

<svg
   xmlns:dc="http://purl.org/dc/elements/1.1/"
   xmlns:cc="http://creativecommons.org/ns#"
   xmlns:rdf="http://www.w3.org/1999/02/22-rdf-syntax-ns#"
   xmlns:svg="http://www.w3.org/2000/svg"
   xmlns="http://www.w3.org/2000/svg"
   xmlns:sodipodi="http://sodipodi.sourceforge.net/DTD/sodipodi-0.dtd"
   xmlns:inkscape="http://www.inkscape.org/namespaces/inkscape"
   version="1.1"
   id="Layer_1"
   x="0px"
   y="0px"
   width="146.002"
   height="146.002"
   viewBox="0 0 146.002 146.002"
   enable-background="new 0 0 110.053 146.002"
   xml:space="preserve"
   sodipodi:docname="btc.svg"
   inkscape:version="0.92.1 r15371"><metadata
     id="metadata3773"><rdf:RDF><cc:Work
         rdf:about=""><dc:format>image/svg+xml</dc:format><dc:type
           rdf:resource="http://purl.org/dc/dcmitype/StillImage" /><dc:title></dc:title></cc:Work></rdf:RDF></metadata><defs
     id="defs3771" /><sodipodi:namedview
     pagecolor="#ffffff"
     bordercolor="#666666"
     borderopacity="1"
     objecttolerance="10"
     gridtolerance="10"
     guidetolerance="10"
     inkscape:pageopacity="0"
     inkscape:pageshadow="2"
     inkscape:window-width="1366"
     inkscape:window-height="702"
     id="namedview3769"
     showgrid="false"
     inkscape:zoom="1.6164162"
     inkscape:cx="55.026501"
     inkscape:cy="73.000999"
     inkscape:window-x="0"
     inkscape:window-y="38"
     inkscape:window-maximized="1"
     inkscape:current-layer="Layer_1" /><g
     id="New_Symbol_6"
     transform="translate(0,2.1972656e-6)" /><g
     id="g3766"
     transform="translate(20.415534,0.61865473)"><g
       id="g3764"><linearGradient
         id="SVGID_1_"
         gradientUnits="userSpaceOnUse"
         x1="0"
         y1="73.000999"
         x2="110.0527"
         y2="73.000999"><stop
           offset="0"
           style="stop-color:#F87908"
           id="stop3757" /><stop
           offset="1"
           style="stop-color:#FDCB03"
           id="stop3759" /></linearGradient><path
         d="m 98.305,70.873 c 7.152,6.59 11.687,15.981 11.738,26.423 l 0.01,2.011 c 0.097,19.878 -16.004,36.057 -35.89,36.057 h -0.88 l 0.052,10.639 H 50.181 l -0.052,-10.639 h -9.49 l 0.052,10.639 H 17.536 L 17.484,135.364 H 12.08 0.597 L 0.484,112.21 H 11.967 L 11.831,84.396 11.718,61.23 11.596,36.181 H 0.113 L 0,13.019 h 11.482 5.405 L 16.824,0 h 23.154 l 0.063,13.019 h 9.49 L 49.469,0 h 23.154 l 0.063,13.127 c 18.178,1.104 32.706,16.188 32.796,34.628 l 0.009,1.903 c 0.039,7.99 -2.663,15.335 -7.186,21.215 z M 86.897,99.307 86.887,97.296 C 86.853,90.176 81.033,84.395 73.914,84.395 h -2.99 -35.939 l 0.136,27.814 h 4.92 34.01 c 7.119,0 12.882,-5.791 12.846,-12.902 M 34.75,36.182 34.873,61.231 h 35.939 c 6.384,0 11.557,-5.189 11.525,-11.572 L 82.328,47.756 C 82.297,41.372 77.073,36.183 70.689,36.183 H 39.67 34.75"
         id="path3762"
         inkscape:connector-curvature="0"
         style="fill:url(#SVGID_1_)" /></g></g></svg>