<?xml version="1.0" encoding="UTF-8" standalone="no"?>
<!-- Generator: Adobe Illustrator 16.0.0, SVG Export Plug-In . SVG Version: 6.00 Build 0)  -->

<svg
   xmlns:dc="http://purl.org/dc/elements/1.1/"
   xmlns:cc="http://creativecommons.org/ns#"
   xmlns:rdf="http://www.w3.org/1999/02/22-rdf-syntax-ns#"
   xmlns:svg="http://www.w3.org/2000/svg"
   xmlns="http://www.w3.org/2000/svg"
   xmlns:sodipodi="http://sodipodi.sourceforge.net/DTD/sodipodi-0.dtd"
   xmlns:inkscape="http://www.inkscape.org/namespaces/inkscape"
   version="1.1"
   id="content"
   x="0px"
   y="0px"
   width="175.305px"
   height="152.984px"
   viewBox="0 0 175.305 152.984"
   enable-background="new 0 0 175.305 152.984"
   xml:space="preserve"
   sodipodi:docname="car.svg"
   inkscape:version="0.92.1 r15371"><metadata
     id="metadata194"><rdf:RDF><cc:Work
         rdf:about=""><dc:format>image/svg+xml</dc:format><dc:type
           rdf:resource="http://purl.org/dc/dcmitype/StillImage" /><dc:title></dc:title></cc:Work></rdf:RDF></metadata><defs
     id="defs192" /><sodipodi:namedview
     pagecolor="#ffffff"
     bordercolor="#666666"
     borderopacity="1"
     objecttolerance="10"
     gridtolerance="10"
     guidetolerance="10"
     inkscape:pageopacity="0"
     inkscape:pageshadow="2"
     inkscape:window-width="1366"
     inkscape:window-height="702"
     id="namedview190"
     showgrid="false"
     inkscape:zoom="2.1816295"
     inkscape:cx="82.158147"
     inkscape:cy="78.610946"
     inkscape:window-x="0"
     inkscape:window-y="38"
     inkscape:window-maximized="1"
     inkscape:current-layer="content" /><g
     id="g6202"
     transform="translate(0,-2)"><path
       style="fill:#f5e8ca;stroke-width:1.20203543"
       d="m 38.297769,147.2366 c 0,-2.07529 1.431009,-5.7185 3.235267,-8.23667 1.779397,-2.48348 4.85421,-6.10212 6.832917,-8.04141 2.484523,-2.43503 3.848279,-5.23156 4.407695,-9.03845 0.678856,-4.61969 0.392093,-5.9288 -1.77062,-8.08311 -1.419367,-1.41386 -3.718642,-5.0521 -5.109497,-8.08497 -1.428279,-3.11448 -3.349561,-5.51432 -4.414692,-5.51432 -1.037224,0 -3.091932,2.22024 -4.566017,4.93386 -1.474087,2.71363 -4.308796,6.86449 -6.299355,9.22414 -1.990558,2.35965 -4.576397,4.57911 -5.746309,4.93212 -1.169911,0.35302 -3.459483,2.47107 -5.087936,4.70678 -1.86341,2.55829 -3.966467,4.06494 -5.67405,4.06494 -1.492276,0 -3.736111,-0.69765 -4.9863026,-1.55033 -1.2709066,-0.86681 -2.2957361,-3.04208 -2.3244756,-4.93387 -0.028265,-1.86095 0.7345262,-5.90278 1.6951048,-8.98185 1.6143604,-5.17473 1.5422694,-6.12137 -0.9527998,-12.51138 C 4.9271012,93.438747 4.9073815,93.030342 6.9433223,87.833204 8.5877288,83.635531 8.7025585,82.347384 7.4672915,81.955371 6.597214,81.679252 5.0569995,79.959249 4.0445925,78.133141 3.0321856,76.307034 2.2038526,73.151422 2.2038526,71.12067 c 0,-3.6568 0.044844,-3.683408 4.6673167,-2.769165 2.5670242,0.507712 7.1876677,0.893376 10.2680967,0.857031 3.080429,-0.03635 7.390956,-0.438568 9.57895,-0.893828 2.200349,-0.457833 7.345312,-3.669903 11.512714,-7.187545 4.144,-3.497888 7.534546,-7.055681 7.534546,-7.906207 0,-0.850525 2.184125,-3.159926 4.853612,-5.132002 2.669486,-1.972075 11.677755,-6.295623 20.018373,-9.607883 13.956926,-5.542632 16.087023,-6.82117 26.74406,-16.052465 6.368609,-5.516596 13.182549,-10.569915 15.142079,-11.229599 1.95953,-0.659683 6.23119,-1.792237 9.49258,-2.5167842 3.26138,-0.7245464 6.78456,-1.3173577 7.82925,-1.3173577 1.04471,0 3.4919,-1.0981534 5.43821,-2.4403409 3.40381,-2.3472943 3.70666,-2.3660158 7.94284,-0.491012 3.08288,1.3645314 4.99322,3.3226333 6.36781,6.5270188 1.08003,2.517729 1.96415,6.003743 1.96468,7.746699 5.4e-4,1.742955 1.61229,6.345906 3.58166,10.228781 1.96939,3.882874 5.09083,8.167752 6.93656,9.521952 1.84572,1.354201 5.0278,4.615021 7.07131,7.246266 2.04351,2.631245 3.53767,5.6601 3.32037,6.730787 -0.24588,1.211572 -1.80123,2.065962 -4.11873,2.262512 -2.08289,0.176651 -5.49166,-0.702867 -7.73603,-1.996014 -2.2068,-1.271503 -4.94751,-4.286868 -6.09048,-6.700813 l -2.0781,-4.388991 -1.03508,5.119066 c -0.56929,2.815486 -1.12917,10.912833 -1.24418,17.994105 -0.115,7.081272 0.0112,15.850118 0.28015,19.486325 0.40581,5.483611 1.15579,7.265739 4.39697,10.44819 2.14923,2.110298 4.29212,5.026547 4.76194,6.480554 0.55594,1.72053 -0.1099,4.50125 -1.90672,7.96345 -2.05569,3.96088 -5.2958,7.07285 -12.68417,12.18256 -5.45777,3.77453 -18.02618,11.33342 -27.9298,16.79755 -9.90362,5.46413 -21.48289,11.38959 -25.731707,13.1677 -18.599236,7.04309 -52.850661,-0.91084 -53.055164,-4.01461 z m 25.514665,-27.26346 c 0.423069,-0.63851 -0.383995,-1.16091 -1.793473,-1.16091 -1.409479,0 -2.56269,0.5224 -2.56269,1.16091 0,0.6385 0.807063,1.16091 1.793473,1.16091 0.986411,0 2.13962,-0.52241 2.56269,-1.16091 z M 141.60105,88.957605 c 0,-0.457528 -0.91622,-3.069576 -2.03602,-5.80455 -1.11981,-2.734974 -2.53758,-4.97268 -3.15061,-4.97268 -0.61302,0 -1.33342,0.653012 -1.60086,1.451138 -0.26746,0.798125 -0.83534,3.410173 -1.26196,5.80455 -0.77472,4.348037 -0.77023,4.353412 3.63689,4.353412 2.42691,0 4.41256,-0.374341 4.41256,-0.83187 z"
       id="path6216"
       inkscape:connector-curvature="0"
       sodipodi:nodetypes="ccsscssssccsscssssssscssssssssscsccccscssccccccscsscccssscscsccss" /><path
       style="fill:#cecdcd;stroke-width:1.20203543"
       d="m 39.788175,147.04467 c -0.32834,-4.1663 0.316901,-5.57272 5.042365,-10.99074 4.538828,-5.20402 6.166506,-6.27157 10.022308,-6.57337 3.89748,-0.30505 4.603423,-0.78011 4.603423,-3.09782 0,-1.90821 1.413916,-3.55748 4.667317,-5.44424 l 4.667317,-2.70673 -6.445395,-0.34802 c -5.639502,-0.3045 -6.96227,-0.88568 -10.579252,-4.64806 -2.27362,-2.36502 -5.203698,-7.29843 -6.511282,-10.96314 L 42.87755,95.609437 48.36652,85.443769 c 4.492244,-8.319713 6.053988,-10.225081 8.600516,-10.492852 2.592031,-0.272555 3.631058,0.599677 6.223089,5.224095 2.148428,3.832992 5.217822,6.864133 9.916309,9.792724 3.742621,2.332794 7.297385,5.271197 7.899475,6.529781 0.662979,1.385864 0.536237,4.797553 -0.321373,8.650803 -0.778845,3.49935 -2.433392,7.38098 -3.676772,8.62582 -1.976884,1.97923 -2.183806,3.78564 -1.648257,14.38915 0.336839,6.66917 1.186222,12.46925 1.88752,12.88905 0.701298,0.41979 2.025974,0.49451 2.943726,0.16602 0.917751,-0.32849 1.668639,-2.1177 1.668639,-3.97603 0,-1.85832 1.147592,-8.46316 2.550204,-14.67741 1.402613,-6.21423 3.151005,-12.73571 3.885317,-14.49216 0.966507,-2.31186 0.948426,-3.62815 -0.06549,-4.76767 -0.825752,-0.92805 -1.066176,-3.13379 -0.585785,-5.374205 0.53805,-2.509313 2.94304,-5.621786 7.080388,-9.16325 3.446064,-2.949741 9.226254,-7.906242 12.844864,-11.014448 4.19676,-3.604809 7.27501,-5.402261 8.50052,-4.963616 1.0567,0.378216 2.47292,2.041085 3.14719,3.695265 0.67426,1.654179 1.20136,4.410216 1.17131,6.124527 -0.03,1.71431 -0.84493,5.186567 -1.81085,7.716126 -0.96592,2.529561 -1.55001,4.791543 -1.29798,5.026628 0.25204,0.235085 1.82594,-0.408448 3.49757,-1.430073 1.78061,-1.088238 7.15899,-2.153821 12.98689,-2.573011 9.7235,-0.699392 9.96508,-0.653101 10.72437,2.054969 0.42724,1.523763 0.45412,4.652713 0.0597,6.953218 -0.54722,3.19218 -0.24414,4.352 1.27972,4.89744 1.09821,0.39308 2.86081,0.40541 3.9169,0.0274 1.51056,-0.54068 1.74591,-1.77108 1.10329,-5.768119 -0.66428,-4.132016 -0.45867,-5.080836 1.10109,-5.080836 1.05485,0 3.07871,1.376475 4.49748,3.058834 1.41876,1.682359 2.57957,4.093111 2.57957,5.357221 0,1.26411 -1.48921,4.85052 -3.30936,7.96981 -1.82014,3.11928 -3.67926,5.67143 -4.13137,5.67143 -0.45212,0 -3.86359,2.12296 -7.58105,4.7177 -3.71748,2.59473 -14.21004,8.90114 -23.31683,14.01423 -9.10678,5.11309 -21.14846,11.33516 -26.759281,13.82682 -15.030264,7.02018 -52.900239,2.73688 -54.139594,-2.00448 z M 11.57909,125.83897 c -0.445401,-0.67221 -0.463673,-1.7446 -0.0406,-2.3831 0.423069,-0.63851 1.617346,-1.16091 2.65395,-1.16091 1.090472,0 1.715148,0.8156 1.482318,1.93538 -0.221328,1.06448 -1.051186,2.13687 -1.844129,2.38311 -0.792943,0.24624 -1.806133,-0.10228 -2.251535,-0.77448 z m 7.73823,-8.28066 c -1.19796,-0.65081 -3.018213,-2.69862 -4.045008,-4.55068 -1.026795,-1.85206 -1.866899,-4.72016 -1.866899,-6.37356 0,-1.65339 1.120054,-5.054 2.489008,-7.556899 1.928503,-3.525938 3.60817,-4.863485 7.458814,-5.939573 3.852303,-1.076554 4.66882,-1.72712 3.631252,-2.893231 -0.736204,-0.827411 -1.001476,-2.494992 -0.589492,-3.705736 0.411984,-1.210744 2.131854,-2.789022 3.821933,-3.507283 1.690081,-0.718262 4.059646,-0.97934 5.265703,-0.580174 1.206056,0.399166 3.172965,1.510932 4.37091,2.47059 1.197945,0.95966 2.178081,2.888924 2.178081,4.287256 0,1.398332 -1.035206,3.416261 -2.300457,4.484288 -1.265251,1.068027 -2.347809,3.495308 -2.405684,5.393959 -0.05788,1.898653 -1.659983,6.116563 -3.560238,9.373143 -1.900255,3.25658 -4.813775,6.91797 -6.474487,8.13644 -1.660713,1.21846 -3.644044,2.19949 -4.407403,2.18007 -0.763358,-0.0194 -2.368073,-0.56779 -3.566033,-1.21861 z M 5.3975331,79.007149 C 4.4182666,77.594673 3.2630734,75.094222 2.8304392,73.450592 2.3115419,71.47924 2.6760145,69.972795 3.9013619,69.024243 c 1.4904672,-1.153784 2.6008243,-1.079411 5.6189826,0.376371 2.0688005,0.997866 5.2897165,1.814301 7.1575945,1.814301 1.867877,0 5.255794,-0.627233 7.528703,-1.393849 3.149937,-1.062426 4.478016,-1.071628 5.585426,-0.03869 0.799077,0.745334 1.452866,2.957208 1.452866,4.915277 0,1.958068 -0.662795,4.178342 -1.472879,4.933944 -0.846318,0.789398 -5.965343,1.495033 -12.033458,1.658758 C 8.032801,81.552228 7.0339044,81.367425 5.3975331,79.007153 Z M 72.213604,63.497565 c -2.224755,-1.022963 -4.045008,-2.303676 -4.045008,-2.846029 0,-0.542353 -1.652421,-1.783126 -3.672046,-2.757274 -2.019625,-0.974147 -6.780288,-1.771177 -10.579251,-1.771177 -6.100942,0 -6.907206,-0.273813 -6.907206,-2.345744 0,-1.45607 2.096425,-3.724055 5.527505,-5.97985 3.040127,-1.998758 12.061139,-6.252894 20.046693,-9.453636 12.86772,-5.157593 15.672016,-6.829692 24.654477,-14.700571 5.574412,-4.884573 11.520082,-9.761836 13.212612,-10.838364 1.69252,-1.076529 4.3529,-1.957325 5.91194,-1.957325 1.71632,0 2.83461,0.701702 2.83461,1.778652 0,0.978259 -0.84012,3.654105 -1.86693,5.946325 -1.02681,2.292221 -1.86693,5.416986 -1.86693,6.943925 0,1.526938 -0.66049,3.762737 -1.46775,4.96844 -1.182,1.765384 -1.03275,2.811448 0.76658,5.372896 1.23023,1.751278 2.20433,5.209939 2.16756,7.696069 -0.037,2.497242 -1.26371,6.321733 -2.74477,8.556956 -1.47287,2.222878 -3.70748,4.555525 -4.96578,5.183658 -1.25831,0.628135 -3.09266,0.853993 -4.07634,0.501907 -0.98368,-0.352085 -2.43841,-1.970601 -3.23273,-3.596699 -1.18955,-2.435191 -1.76797,-2.705932 -3.28013,-1.535354 -1.009747,0.781654 -1.835905,2.193078 -1.835905,3.136499 0,0.943419 -1.904265,3.4915 -4.2317,5.662402 -3.662359,3.416044 -5.04385,3.943537 -10.268097,3.92066 -3.320018,-0.01453 -7.85665,-0.863403 -10.081404,-1.886366 z m 54.986906,-3.806756 c -2.20603,-3.109329 -3.58241,-7.144639 -4.32927,-12.692559 -0.60223,-4.473651 -1.45761,-9.481572 -1.90082,-11.128714 -0.4526,-1.682039 -0.17991,-3.698283 0.6221,-4.599652 0.78537,-0.882668 3.43538,-1.95612 5.88892,-2.385448 4.20279,-0.735421 4.42245,-0.994414 3.7954,-4.474852 -0.36607,-2.03184 -1.03658,-4.568079 -1.49,-5.636086 -0.51185,-1.205593 0.13764,-2.839197 1.71302,-4.308633 2.15851,-2.01333 3.10338,-2.182788 6.32682,-1.134667 2.08414,0.677672 4.91398,2.565707 6.28852,4.195632 1.37455,1.629924 2.75064,2.728952 3.05798,2.442282 0.30734,-0.28667 -0.56833,-2.249993 -1.94595,-4.362938 -1.37761,-2.112947 -4.15726,-4.423526 -6.17702,-5.13462 -2.0984,-0.7387896 -3.67225,-2.1453743 -3.67225,-3.2819731 0,-1.0939905 1.09216,-2.3123997 2.42703,-2.7075757 1.33486,-0.3951761 4.10918,0.092866 6.16514,1.0845389 2.56839,1.2388434 4.14353,3.1647056 5.03373,6.1545929 0.71259,2.393354 1.29876,5.161288 1.30257,6.150964 0.004,0.989675 -0.56767,2.335383 -1.26999,2.990461 -0.87284,0.814127 -0.2768,2.197636 1.88343,4.371788 1.7382,1.749407 4.21709,5.105385 5.50864,7.45773 1.29156,2.352344 4.09119,5.472653 6.22141,6.934019 2.13023,1.461365 5.30659,4.775034 7.05858,7.363707 1.75198,2.588674 2.88304,5.441684 2.51347,6.340024 -0.36959,0.898339 -1.86509,1.633345 -3.32333,1.633345 -1.45825,0 -4.63098,-0.876213 -7.05051,-1.94714 -3.36622,-1.489941 -5.11744,-3.462059 -7.4582,-8.398964 l -3.05905,-6.451826 -2.47949,3.17487 c -1.36372,1.746179 -3.25999,3.17487 -4.21391,3.17487 -0.95394,0 -2.55643,1.175421 -3.56109,2.612048 -1.00467,1.436626 -2.4464,5.20273 -3.20383,8.369122 -0.75745,3.166391 -1.97722,6.43145 -2.71059,7.255687 -0.73338,0.824237 -2.09701,1.498613 -3.0303,1.498613 -0.93328,0 -3.15229,-2.051391 -4.93116,-4.558646 z"
       id="path6214"
       inkscape:connector-curvature="0"
       sodipodi:nodetypes="cccscccsscsssssscscsssccssscccsccscccscscssscsccccscscccsssssssscsscsccccssssscsssccsssssssscsssscccccssssscsccssscccscsccsccscscccccscccsscccsc" /><path
       style="fill:#e1d0b0;stroke-width:1.20203543"
       d="m 74.08053,151.22472 c -1.197944,-0.65081 -2.178081,-2.3824 -2.178081,-3.84796 0,-1.46556 0.980137,-3.45986 2.178081,-4.43176 1.197945,-0.9719 3.298238,-1.7671 4.667317,-1.7671 1.36908,0 3.469372,0.7952 4.667317,1.7671 1.197945,0.9719 2.178081,2.70132 2.178081,3.84316 0,1.14184 -1.244777,2.88931 -2.76617,3.88327 -1.521395,0.99394 -3.621688,1.7913 -4.667317,1.77188 -1.045631,-0.0194 -2.881283,-0.56778 -4.079228,-1.21859 z m -23.86999,-13.3404 c -1.075706,-1.00335 -1.955829,-2.19315 -1.955829,-2.64396 0,-0.45083 0.871876,-1.98075 1.937502,-3.39981 1.201521,-1.60005 3.23448,-2.58013 5.351856,-2.58013 1.877896,0 4.086449,0.62689 4.907897,1.39309 0.821447,0.7662 1.493541,2.79995 1.493541,4.51943 0,1.77989 -0.84789,3.42983 -1.96872,3.831 -1.082798,0.38757 -3.283104,0.70467 -4.889571,0.70467 -1.606467,0 -3.800972,-0.82093 -4.876676,-1.82429 z M 11.57909,125.83897 c -0.445401,-0.67221 -0.463673,-1.7446 -0.0406,-2.3831 0.423069,-0.63851 1.617346,-1.16091 2.65395,-1.16091 1.090472,0 1.715148,0.8156 1.482318,1.93538 -0.221328,1.06448 -1.051186,2.13687 -1.844129,2.38311 -0.792943,0.24624 -1.806133,-0.10228 -2.251535,-0.77448 z m 7.73823,-8.28066 c -1.19796,-0.65081 -3.018213,-2.69862 -4.045008,-4.55068 -1.026795,-1.85206 -1.866899,-4.72016 -1.866899,-6.37356 0,-1.65339 1.120054,-5.054 2.489008,-7.556899 1.928503,-3.525938 3.60817,-4.863485 7.458814,-5.939573 3.852303,-1.076554 4.66882,-1.72712 3.631252,-2.893231 -0.736204,-0.827411 -1.001476,-2.494992 -0.589492,-3.705736 0.411984,-1.210744 2.131854,-2.789022 3.821933,-3.507283 1.690081,-0.718262 4.059646,-0.97934 5.265703,-0.580174 1.206056,0.399166 3.172965,1.510932 4.37091,2.47059 1.197945,0.95966 2.178081,2.888924 2.178081,4.287256 0,1.398332 -1.035206,3.416261 -2.300457,4.484288 -1.265251,1.068027 -2.347809,3.495308 -2.405684,5.393959 -0.05788,1.898653 -1.659983,6.116563 -3.560238,9.373143 -1.900255,3.25658 -4.813775,6.91797 -6.474487,8.13644 -1.660713,1.21846 -3.644044,2.19949 -4.407403,2.18007 -0.763358,-0.0194 -2.368073,-0.56779 -3.566033,-1.21861 z m 33.704861,-2.98886 c -1.8274,-1.81673 -4.76781,-6.372 -6.534243,-10.12282 -1.766434,-3.75083 -3.160854,-7.668903 -3.098713,-8.706829 0.06214,-1.037928 2.442473,-6.066417 5.289626,-11.174421 4.163525,-7.469674 5.785598,-9.351312 8.288185,-9.614463 2.592031,-0.272555 3.631058,0.599677 6.223089,5.224095 2.148428,3.832992 5.217822,6.864133 9.916309,9.792724 3.742621,2.332794 7.297385,5.271197 7.899475,6.529781 0.663789,1.387557 0.535779,4.744733 -0.325198,8.528563 -0.780949,3.43213 -2.195941,7.20394 -3.14443,8.3818 -0.948487,1.17787 -3.304213,2.30273 -5.234949,2.49971 -1.930735,0.19698 -6.310817,0.71969 -9.733516,1.16156 -5.762179,0.74393 -6.469173,0.55878 -9.545635,-2.4997 z m 89.903999,1.14635 c -1.41336,-0.92338 -2.56975,-2.59422 -2.56975,-3.71298 0,-1.11876 0.79485,-3.04817 1.76632,-4.28758 0.97148,-1.23942 3.27301,-2.27855 5.11451,-2.3092 2.16373,-0.036 4.01115,0.88803 5.22222,2.61205 1.6731,2.38174 1.66711,2.96232 -0.0559,5.41509 -1.06144,1.51103 -3.04991,3.02052 -4.41879,3.35441 -1.36888,0.33389 -3.64526,-0.14841 -5.05862,-1.07179 z M 88.339244,103.42851 c -0.932439,-1.04795 -1.198622,-3.15169 -0.695604,-5.497625 0.538049,-2.509313 2.943039,-5.621786 7.080388,-9.16325 3.446064,-2.949741 9.226252,-7.906242 12.844862,-11.014448 4.19676,-3.604809 7.27501,-5.402261 8.50053,-4.963616 1.05669,0.378216 2.47292,2.041085 3.14719,3.695265 0.67426,1.654179 1.20135,4.410216 1.17131,6.124527 -0.03,1.71431 -0.84494,5.186567 -1.81086,7.716126 -0.96592,2.529561 -1.53764,4.803085 -1.27048,5.052279 0.26717,0.249194 1.76675,-0.38382 3.33241,-1.406696 1.56566,-1.022877 3.31517,-1.859777 3.88779,-1.859777 0.57263,0 0.695,0.52241 0.27193,1.16091 -0.42307,0.638501 -0.17609,1.16091 0.54885,1.16091 0.72494,0 1.31807,1.548848 1.31807,3.441885 0,2.21475 -0.85831,3.87035 -2.40741,4.64364 -1.32408,0.66096 -3.38027,1.20176 -4.56932,1.20176 -1.18904,0 -3.09891,-0.79096 -4.24414,-1.75767 -1.8315,-1.54601 -2.59915,-1.55623 -6.37459,-0.0848 -2.36079,0.92005 -7.65118,2.02728 -11.756421,2.4605 -5.805124,0.6126 -7.799786,0.41037 -8.974505,-0.90988 z M 5.9679788,78.53305 C 4.5822487,76.889863 3.4484704,73.987759 3.4484704,72.083931 c 0,-3.177677 0.2806476,-3.402171 3.4226989,-2.737869 1.8824845,0.398002 5.2761917,1.054696 7.5415707,1.459322 2.303646,0.411462 6.296854,0.06523 9.060855,-0.785622 3.69071,-1.136124 5.300168,-1.187212 6.35666,-0.201775 0.778075,0.725745 1.414679,2.92159 1.414679,4.879658 0,1.958069 -0.665095,4.180488 -1.477988,4.93871 -0.839485,0.783024 -5.755195,1.487823 -11.378725,1.631446 -9.3078526,0.23772 -10.05161,0.07395 -12.4202422,-2.734751 z M 72.213604,63.497565 c -2.224755,-1.022963 -4.045008,-2.303676 -4.045008,-2.846029 0,-0.542353 -1.652421,-1.783126 -3.672046,-2.757274 -2.019625,-0.974147 -6.780288,-1.771177 -10.579251,-1.771177 -5.421182,0 -6.907206,-0.388718 -6.907206,-1.806807 0,-0.993743 1.814558,-3.352683 4.032352,-5.242089 C 53.260239,47.184784 62.07564,42.904354 70.632227,39.562123 85.073989,33.921124 86.957603,32.807384 96.898265,24.031579 102.788,18.83201 109.34693,13.738518 111.47367,12.712706 c 2.12674,-1.025811 4.73472,-1.865111 5.79552,-1.865111 1.0608,0 1.92874,0.800393 1.92874,1.778652 0,0.978259 -0.84012,3.654105 -1.86693,5.946325 -1.02681,2.292221 -1.86693,5.416986 -1.86693,6.943925 0,1.526938 -0.66049,3.762737 -1.46775,4.96844 -1.182,1.765384 -1.03275,2.811448 0.76658,5.372896 1.23023,1.751278 2.20433,5.209939 2.16756,7.696069 -0.037,2.497242 -1.26371,6.321733 -2.74477,8.556956 -1.47287,2.222878 -3.70748,4.555525 -4.96578,5.183658 -1.25831,0.628135 -3.09266,0.853993 -4.07634,0.501907 -0.98368,-0.352085 -2.43841,-1.970601 -3.23273,-3.596699 -1.18955,-2.435191 -1.76797,-2.705932 -3.28013,-1.535354 -1.009747,0.781654 -1.835905,2.193078 -1.835905,3.136499 0,0.943419 -1.904265,3.4915 -4.2317,5.662402 -3.662359,3.416044 -5.04385,3.943537 -10.268097,3.92066 -3.320018,-0.01453 -7.85665,-0.863403 -10.081404,-1.886366 z m 54.986906,-3.806756 c -2.20603,-3.109329 -3.58241,-7.144639 -4.32927,-12.692559 -0.60223,-4.473651 -1.45761,-9.481572 -1.90082,-11.128714 -0.4526,-1.682039 -0.17991,-3.698283 0.6221,-4.599652 0.78537,-0.882668 3.43538,-1.95612 5.88892,-2.385448 4.20279,-0.735421 4.42245,-0.994414 3.7954,-4.474852 -0.36607,-2.03184 -1.03658,-4.568079 -1.49,-5.636086 -0.51185,-1.205593 0.13764,-2.839197 1.71302,-4.308633 2.15851,-2.01333 3.10338,-2.182788 6.32682,-1.134667 2.08414,0.677672 4.91398,2.565707 6.28852,4.195632 1.37455,1.629924 2.75064,2.728952 3.05798,2.442282 0.30734,-0.28667 -0.56833,-2.249993 -1.94595,-4.362938 -1.37761,-2.112947 -4.15726,-4.423526 -6.17702,-5.13462 -2.01974,-0.7110949 -3.67225,-1.9436017 -3.67225,-2.7389039 0,-0.7953025 0.98013,-1.9250633 2.17808,-2.5105795 1.21202,-0.5923978 3.38797,-0.6382108 4.90591,-0.1032908 1.50031,0.5287066 3.54563,2.1648063 4.54514,3.635777 0.99953,1.4709712 2.20187,4.3937212 2.67189,6.4950002 0.51817,2.316552 0.29638,4.447844 -0.56339,5.414135 -1.09178,1.227043 -0.87784,2.083999 0.93004,3.725406 1.2914,1.17248 4.08953,5.005034 6.21807,8.516787 2.12853,3.511752 5.01429,7.038568 6.4128,7.837368 1.3985,0.7988 3.96974,3.560883 5.71389,6.137962 1.74414,2.577079 2.83789,5.188575 2.43056,5.803324 -0.40733,0.614749 -2.16376,1.117726 -3.90316,1.117726 -1.93713,0 -4.80223,-1.529406 -7.39425,-3.947094 -2.32743,-2.170902 -4.2317,-4.701983 -4.2317,-5.624623 0,-0.922641 -1.04401,-2.558804 -2.32003,-3.635919 -2.19477,-1.852652 -2.43152,-1.799687 -4.38485,0.980983 -1.13566,1.616655 -2.87912,2.939373 -3.87437,2.939373 -0.99525,0 -2.63154,1.175421 -3.6362,2.612048 -1.00467,1.436626 -2.4464,5.20273 -3.20383,8.369122 -0.75745,3.166391 -1.97722,6.43145 -2.71059,7.255687 -0.73338,0.824237 -2.09701,1.498613 -3.0303,1.498613 -0.93328,0 -3.15229,-2.051391 -4.93116,-4.558646 z"
       id="path6212"
       inkscape:connector-curvature="0" /><path
       style="fill:#cbb491;stroke-width:1.20203543"
       d="m 74.08053,151.22472 c -1.197944,-0.65081 -2.178081,-2.35888 -2.178081,-3.7957 0,-1.43683 0.672094,-3.2393 1.493542,-4.0055 0.821447,-0.7662 3.229783,-1.39309 5.351856,-1.39309 2.122074,0 4.530409,0.62689 5.351857,1.39309 0.821447,0.7662 1.493541,2.3038 1.493541,3.4169 0,1.1131 -1.244777,2.83705 -2.76617,3.83101 -1.521395,0.99394 -3.621688,1.7913 -4.667317,1.77188 -1.045631,-0.0194 -2.881283,-0.56778 -4.079228,-1.21859 z m -23.86999,-13.3404 c -1.075706,-1.00335 -1.955829,-2.20954 -1.955829,-2.68039 0,-0.47086 0.722436,-1.77765 1.605413,-2.90397 1.173091,-1.49641 2.932698,-1.94693 6.534243,-1.67303 4.398023,0.33449 4.973073,0.73636 5.339649,3.73161 0.23334,1.9066 -0.304351,3.77966 -1.244617,4.33564 -0.910491,0.53838 -3.155645,0.98688 -4.989234,0.99665 -1.833589,0.009 -4.213921,-0.80315 -5.289625,-1.80651 z M 17.872214,114.07951 c -1.885226,-2.08978 -3.222183,-5.00382 -3.222183,-7.02311 0,-1.89822 0.803188,-4.90004 1.78486,-6.67071 0.981674,-1.770673 2.579796,-3.834771 3.551382,-4.586884 0.971588,-0.752114 4.626593,-1.633031 8.122237,-1.957592 5.443298,-0.505398 6.54587,-0.258701 7.680301,1.718438 0.728521,1.269702 0.964737,3.755896 0.524922,5.524878 -0.439814,1.76897 -2.14208,5.41248 -3.782814,8.09667 -1.640733,2.68419 -4.219452,5.68804 -5.730484,6.67523 -1.511033,0.98718 -3.413042,1.79489 -4.226686,1.79489 -0.813644,0 -2.929335,-1.60732 -4.701535,-3.57181 z m 37.78223,0.99692 c -2.590129,-1.60017 -5.627708,-5.17758 -7.67094,-9.03421 -1.860513,-3.51176 -3.400728,-7.543946 -3.422699,-8.960424 -0.02197,-1.416477 2.259037,-6.771174 5.068908,-11.899327 3.642774,-6.648243 5.778514,-9.323914 7.442412,-9.323914 1.456804,0 3.257797,1.689818 4.79351,4.497608 1.352975,2.473685 4.231891,5.888317 6.397589,7.58807 2.165699,1.699755 5.511035,3.849377 7.434079,4.77694 1.923045,0.927563 3.855106,2.740519 4.293471,4.028792 0.438364,1.288273 0.171312,5.153645 -0.593449,8.589725 -0.764761,3.43607 -2.343907,7.01998 -3.509211,7.96423 -1.165306,0.94425 -4.450108,2.04636 -7.299559,2.44913 -2.849452,0.40279 -5.960469,1.0114 -6.913372,1.35246 -0.952903,0.34108 -3.662235,-0.57201 -6.020739,-2.02908 z m 86.900606,0.267 c -2.36113,-1.78334 -2.58712,-2.58269 -1.52857,-5.40675 1.01845,-2.71704 2.06421,-3.3781 5.80546,-3.66979 3.60842,-0.28134 4.85921,0.16005 5.97772,2.10944 1.10839,1.93175 1.00868,3.0429 -0.46075,5.13469 -1.03137,1.46822 -3.0335,2.95201 -4.44916,3.29731 -1.4988,0.36558 -3.73129,-0.24631 -5.3447,-1.4649 z M 90.230503,103.48666 c -1.674591,-1.15082 -2.014192,-2.422 -1.405471,-5.260911 0.602929,-2.811891 3.86781,-6.349544 13.120078,-14.216221 6.77457,-5.760036 12.84809,-10.472793 13.49671,-10.472793 0.64861,0 1.82248,1.120991 2.60862,2.491092 0.79197,1.380307 1.17075,5.00103 0.84945,8.119984 -0.35502,3.446246 -1.99734,7.769588 -4.23542,11.1496 -2.01056,3.036391 -5.03348,6.121639 -6.7176,6.856119 -1.68413,0.73447 -5.86244,1.67633 -9.285138,2.09301 -4.29155,0.52246 -6.908458,0.28661 -8.431229,-0.75988 z m 25.111427,-1.64491 c -1.44545,-1.62453 -1.17146,-2.251853 2.02569,-4.637869 2.03348,-1.517579 4.95741,-2.761828 6.49762,-2.765 2.27581,-0.0046 2.80039,0.638988 2.80039,3.436119 0,2.21475 -0.85831,3.87035 -2.40741,4.64364 -1.32408,0.66096 -3.49581,1.20176 -4.82607,1.20176 -1.33027,0 -3.17086,-0.84539 -4.09022,-1.87865 z M 32.082491,90.496474 c -2.297355,-0.708099 -4.393871,-1.90717 -4.658922,-2.664601 -0.265052,-0.757431 0.915499,-2.231185 2.623447,-3.27501 2.557276,-1.562899 3.614347,-1.647732 5.98921,-0.480653 1.586119,0.779466 3.295333,1.992016 3.798256,2.694555 0.502923,0.70254 0.922981,1.869428 0.933464,2.593085 0.01045,0.723655 -0.99963,1.564214 -2.244694,1.867908 -1.245062,0.303693 -4.143404,-0.02719 -6.440761,-0.735284 z M 7.5538571,79.917715 C 6.0888412,78.960591 4.5091449,76.559278 4.0434213,74.581462 3.5776978,72.603647 3.7044845,70.511755 4.3251692,69.932815 c 0.6749475,-0.629553 3.5161822,-0.293777 7.0691878,0.835432 5.391153,1.713404 6.392873,1.722365 10.829317,0.09689 4.336048,-1.588694 5.098771,-1.595174 6.747519,-0.05731 1.022378,0.953615 1.858869,2.363907 1.858869,3.13398 0,0.770074 -0.867166,2.55492 -1.927036,3.966326 -1.58686,2.113188 -2.960045,2.51816 -7.778861,2.294093 -3.218504,-0.149656 -6.98916,0.116658 -8.379234,0.591809 -1.579905,0.540037 -3.5259931,0.211514 -5.1910739,-0.876315 z M 73.769376,62.89786 c -1.36908,-0.704546 -4.039167,-2.623514 -5.933526,-4.264374 -2.782235,-2.409922 -4.995188,-3.075495 -11.512715,-3.462587 -5.634743,-0.334663 -8.068424,-0.945841 -8.068424,-2.026249 0,-0.850875 1.921404,-2.914005 4.269785,-4.584735 2.348382,-1.670729 10.329494,-5.41344 17.735803,-8.317136 7.406311,-2.903696 15.98637,-7.010797 19.066799,-9.126891 3.08043,-2.116094 8.401171,-6.539514 11.823872,-9.829821 3.4227,-3.290307 8.33443,-7.000871 10.91495,-8.2457 3.88142,-1.872369 4.80849,-1.979844 5.36704,-0.622199 0.37134,0.902618 -0.19979,3.594339 -1.26918,5.981601 -1.06937,2.387261 -1.94433,5.589789 -1.94433,7.116728 0,1.526938 -0.69601,3.815789 -1.54669,5.086333 -1.23283,1.841307 -1.23223,2.721526 0.002,4.33766 0.85232,1.115169 2.11531,3.253913 2.80663,4.752765 0.84643,1.835131 0.8459,4.149051 -0.001,7.084798 -0.69222,2.397788 -2.63264,5.742538 -4.31205,7.432778 -1.67929,1.690241 -3.60204,3.073164 -4.27265,3.073164 -0.67061,0 -2.39771,-1.543631 -3.838,-3.430289 -1.54746,-2.027047 -3.3395,-3.172298 -4.380716,-2.799618 -0.969104,0.346869 -2.389721,2.40474 -3.156926,4.573046 -0.767205,2.168306 -2.830099,4.995363 -4.58421,6.282348 -2.175502,1.596158 -5.015184,2.328752 -8.93338,2.304671 -3.159247,-0.01941 -6.864242,-0.611747 -8.233322,-1.316293 z m 55.364394,-2.419698 c -1.39047,-1.392125 -3.03851,-4.378149 -3.66229,-6.635609 -0.62379,-2.25746 -1.79058,-7.940332 -2.59287,-12.628604 -0.80931,-4.729275 -0.98366,-8.952626 -0.39162,-9.486629 0.5869,-0.529373 3.02737,-1.435642 5.42326,-2.013931 3.5235,-0.850457 4.33426,-1.589012 4.24158,-3.863837 -0.063,-1.546821 -0.5236,-4.173929 -1.02348,-5.838017 -0.64139,-2.135101 -0.30676,-3.587259 1.13694,-4.933867 1.12522,-1.049539 2.56431,-1.908253 3.19799,-1.908253 0.63367,0 3.3286,1.834074 5.98875,4.075719 2.66014,2.241647 5.52238,5.619936 6.36053,7.507311 0.83814,1.887375 2.48412,3.715854 3.65771,4.063287 1.1736,0.347433 3.3531,2.655211 4.84333,5.128396 1.49023,2.473184 4.11222,5.353965 5.82661,6.401735 1.7144,1.04777 4.53555,4.000893 6.26922,6.562493 1.73366,2.561601 2.81885,5.160434 2.41152,5.775184 -0.40733,0.614748 -2.06477,1.117725 -3.6832,1.117725 -1.61842,0 -4.62842,-1.32312 -6.68886,-2.940267 -2.06045,-1.617146 -4.37238,-4.709815 -5.13763,-6.872596 -0.76526,-2.162781 -2.29392,-4.62713 -3.39702,-5.476331 -1.64225,-1.264236 -2.10474,-1.269326 -2.55244,-0.02809 -0.30073,0.833748 -1.39224,2.139772 -2.4256,2.902275 -1.03336,0.762504 -3.38425,2.692394 -5.22422,4.288645 -2.22763,1.932557 -3.86642,5.098906 -4.90475,9.476585 -0.85766,3.61587 -2.3662,6.863099 -3.35233,7.216064 -0.98614,0.352965 -2.93064,-0.497256 -4.32113,-1.889381 z m 13.78029,-49.152043 c -2.35827,-1.5167977 -4.87862,-2.9632871 -5.60078,-3.2144204 -0.88343,-0.3072182 -0.83382,-0.9320522 0.15163,-1.9098147 0.87774,-0.8708868 2.73361,-1.1561399 4.63139,-0.7118613 1.74171,0.4077411 3.7784,1.8073762 4.52599,3.1103003 0.74758,1.3029242 1.18381,3.0697511 0.96939,3.9262811 -0.28767,1.149127 -1.51376,0.834459 -4.67762,-1.200485 z"
       id="path6210"
       inkscape:connector-curvature="0" /><path
       style="fill:#b29367;stroke-width:1.20203543"
       d="m 74.593945,150.29796 c -0.915567,-0.54131 -1.475645,-2.23114 -1.244618,-3.75518 0.362564,-2.39177 1.099038,-2.77099 5.381475,-2.77099 3.786126,0 5.063519,0.49447 5.392401,2.08736 0.237037,1.14805 -0.243931,2.84588 -1.068815,3.77296 -0.824884,0.92708 -2.691387,1.6776 -4.147784,1.66782 -1.456395,-0.009 -3.397092,-0.46067 -4.312659,-1.00197 z M 51.918897,137.56761 c -1.834867,-1.38586 -2.551931,-2.82826 -2.03304,-4.08952 0.440898,-1.07168 1.655703,-2.25422 2.69957,-2.62784 1.043866,-0.37363 3.235104,-0.36629 4.869418,0.0163 1.634313,0.3826 3.326799,1.55931 3.761078,2.61491 0.446466,1.08522 -0.118575,2.8553 -1.300235,4.07321 -1.149409,1.18472 -2.781099,2.15399 -3.625978,2.15399 -0.844878,0 -2.811744,-0.96346 -4.370813,-2.141 z M 18.649465,113.85182 c -1.953847,-1.9399 -2.754817,-4.1739 -2.754817,-7.6835 0,-3.92134 0.75507,-5.65263 3.638114,-8.341776 2.794408,-2.606468 4.779518,-3.393429 8.559927,-3.393429 2.840471,0 5.572244,0.73101 6.459904,1.728639 0.972086,1.092518 1.238506,3.218151 0.723984,5.776326 -0.447757,2.22623 -2.636541,6.28063 -4.863964,9.00978 -2.227422,2.72915 -5.165514,5.11441 -6.529094,5.3006 -1.364506,0.1863 -3.717875,-0.89129 -5.234054,-2.39664 z m 35.435164,-0.81222 c -2.454921,-2.01048 -5.313943,-6.13269 -6.849805,-9.87622 l -2.636165,-6.425415 4.992604,-9.754027 c 2.745931,-5.364715 5.806835,-10.045464 6.802008,-10.401663 1.196117,-0.428124 2.616003,0.815033 4.189144,3.667734 1.308856,2.373454 3.971247,5.678057 5.916423,7.343562 1.945177,1.665505 5.357658,3.998776 7.583291,5.185049 2.225634,1.186272 4.381225,3.140239 4.790202,4.34215 0.408978,1.201911 0.385282,4.414 -0.05266,7.13798 -0.43794,2.72398 -1.534223,5.89405 -2.436184,7.04459 -0.901962,1.15055 -4.379473,2.76526 -7.727802,3.58825 -3.348329,0.82299 -7.04852,1.5194 -8.222645,1.54758 -1.174125,0.0282 -4.030911,-1.50162 -6.348411,-3.39957 z m 88.817891,1.77334 c -0.8209,-0.9226 -1.30954,-2.88164 -1.08586,-4.35341 0.34698,-2.28303 1.13521,-2.67595 5.36811,-2.67595 3.81272,0 5.06269,0.49037 5.39873,2.11797 0.24051,1.16488 -0.53872,3.12392 -1.73162,4.35341 -1.19292,1.22949 -3.1337,2.23545 -4.31286,2.23545 -1.17918,0 -2.81559,-0.75486 -3.6365,-1.67747 z M 90.007652,102.64739 c -0.475748,-0.71801 -0.511956,-2.804741 -0.08046,-4.637188 0.522215,-2.217714 4.678602,-6.672166 12.430698,-13.32214 6.4054,-5.494729 12.19479,-9.990417 12.86532,-9.990417 0.67054,0 1.55912,0.82634 1.97463,1.836312 0.41551,1.009974 0.75022,4.013828 0.74379,6.675233 -0.007,3.250345 -1.25157,6.855576 -3.78849,10.981806 -2.07724,3.378587 -5.04884,6.593984 -6.60355,7.145324 -1.5547,0.55135 -5.94303,1.36562 -9.751835,1.80949 -4.652105,0.54215 -7.209016,0.37856 -7.790099,-0.49842 z m 26.286168,-0.86185 c -0.45636,-0.42566 -0.82975,-1.21696 -0.82975,-1.75842 0,-0.541473 1.78069,-1.994558 3.95708,-3.229084 2.17639,-1.234525 4.4167,-1.97963 4.97847,-1.655788 0.56177,0.323842 1.02139,1.808104 1.02139,3.298361 0,1.490257 -0.88591,3.026651 -1.96872,3.414221 -1.08279,0.38756 -2.94972,0.70466 -4.14872,0.70466 -1.199,0 -2.5534,-0.34828 -3.00975,-0.77395 z M 30.058401,88.103703 c -0.381444,-0.927175 -0.330812,-2.233199 0.112514,-2.902275 0.443331,-0.669077 1.85315,-1.216503 3.132934,-1.216503 1.279785,0 3.212152,0.825731 4.29415,1.834958 1.081997,1.009226 1.649026,2.31525 1.260064,2.902275 -0.38896,0.587024 -2.371959,1.067317 -4.406664,1.067317 -2.08604,0 -4.001929,-0.735204 -4.392998,-1.685772 z M 6.7174989,78.0378 C 5.6040725,76.555074 4.6930882,74.095518 4.6930882,72.572119 c 0,-2.480261 0.3578089,-2.669522 3.4226989,-1.810419 1.8824844,0.52767 5.9430499,0.899114 9.0234789,0.825432 3.080429,-0.07368 7.000975,-0.318177 8.712325,-0.54332 2.462085,-0.32391 3.196432,0.149186 3.518241,2.266594 0.223682,1.471771 -0.265181,3.431061 -1.086363,4.353977 -0.923883,1.038342 -3.451251,1.60481 -6.629785,1.485956 -2.8252,-0.105643 -6.886113,0.20739 -9.024251,0.695625 C 9.3699275,80.590261 8.4148725,80.298157 6.7174989,78.0378 Z M 76.388453,63.055903 c -1.982206,-0.55986 -5.062635,-2.315543 -6.845398,-3.901517 -1.782762,-1.585975 -4.818061,-3.439234 -6.745109,-4.118356 -1.927047,-0.679121 -5.707574,-1.234765 -8.40117,-1.234765 -2.693596,0 -4.897447,-0.495823 -4.897447,-1.10183 0,-0.606007 1.845028,-2.414453 4.10006,-4.018771 2.255033,-1.604317 10.415879,-5.370912 18.135211,-8.37021 12.645079,-4.913165 15.166656,-6.42061 25.459613,-15.220235 6.283457,-5.371831 13.016727,-10.551305 14.962827,-11.509942 1.94609,-0.958635 3.85793,-1.444904 4.2485,-1.080596 0.39057,0.364308 -0.26976,3.667889 -1.46742,7.341289 -1.19766,3.6734 -2.67655,8.203921 -3.28641,10.067822 -0.86074,2.63062 -0.55827,4.219851 1.35175,7.102487 1.35334,2.042467 2.46061,4.662397 2.46061,5.822068 0,1.159672 -1.14589,4.316388 -2.54642,7.014926 -1.40054,2.698538 -3.49768,5.246913 -4.66033,5.663057 -1.41706,0.507205 -2.95218,-0.223977 -4.65688,-2.218086 -1.39864,-1.63609 -3.41702,-2.974709 -4.485281,-2.974709 -1.070663,0 -2.977107,2.140449 -4.24819,4.769627 -1.268236,2.623294 -3.45359,5.445267 -4.856341,6.271049 -1.402751,0.825782 -4.23069,1.774391 -6.28431,2.108021 -2.053619,0.333629 -5.355658,0.148531 -7.337865,-0.411329 z m 51.881767,-5.48168 c -1.51254,-2.544664 -3.18902,-8.648686 -4.0351,-14.69155 -1.17401,-8.385158 -1.13995,-10.52005 0.18037,-11.301095 0.89531,-0.529628 2.81943,-0.970959 4.27583,-0.980736 1.45639,-0.0098 3.34837,-0.804928 4.2044,-1.767004 1.24641,-1.400819 1.23799,-2.810001 -0.0422,-7.074978 -1.34576,-4.483341 -1.32176,-5.489245 0.15177,-6.359367 0.96271,-0.568487 2.12748,-1.041614 2.58836,-1.051391 0.46089,-0.0098 2.58574,1.353961 4.72189,3.03053 2.13616,1.676569 4.97953,5.051419 6.31859,7.499667 1.33906,2.448248 2.39529,6.170002 2.34718,8.270565 -0.0481,2.100564 -0.46817,4.699734 -0.93347,5.775936 -0.46529,1.076202 -2.80625,3.185744 -5.20214,4.687871 -3.42079,2.144699 -4.75704,4.092656 -6.22309,9.071915 -1.02681,3.487426 -2.32004,6.993786 -2.87385,7.791912 -0.5538,0.798125 -1.4308,1.451137 -1.94889,1.451137 -0.51809,0 -2.10642,-1.959036 -3.52961,-4.353412 z m 34.72604,-5.719387 c -3.12546,-1.43666 -5.00244,-3.709977 -7.77886,-9.421419 -2.01268,-4.14032 -3.65941,-8.239212 -3.65941,-9.108648 0,-0.869437 0.49567,-1.580794 1.10147,-1.580794 0.60581,0 2.06281,1.368501 3.23776,3.041113 1.17497,1.672612 4.06839,4.623413 6.42982,6.557335 2.36144,1.933922 5.12792,5.021243 6.14773,6.860715 1.01982,1.839472 1.51824,3.851561 1.10759,4.471311 -0.41065,0.619748 -1.13364,1.11492 -1.60664,1.100382 -0.47301,-0.01453 -2.71377,-0.878537 -4.97946,-1.919995 z M 141.85358,9.3742714 c -2.257,-1.2578542 -3.82331,-2.5484917 -3.48066,-2.8680832 0.34263,-0.3195915 1.98747,-0.2616405 3.65519,0.12878 1.66773,0.3904205 3.38723,1.5727505 3.82112,2.6273997 0.43388,1.0546491 0.63567,2.0258531 0.44843,2.1582281 -0.18725,0.132376 -2.18709,-0.788469 -4.44408,-2.0463246 z"
       id="path6208"
       inkscape:connector-curvature="0" /><path
       style="fill:#86561b;stroke-width:1.20203543"
       d="m 75.27857,149.43615 c -0.487787,-0.45497 -0.886885,-1.78498 -0.886885,-2.95557 0,-1.66634 0.964373,-2.12833 4.442727,-2.12833 3.89537,0 4.393726,0.32181 4.045007,2.61204 -0.275146,1.80704 -1.371018,2.71793 -3.555841,2.95557 -1.736968,0.18894 -3.557221,-0.0287 -4.045008,-0.48371 z M 52.001719,136.82111 c -0.844941,-0.94961 -1.211136,-2.51684 -0.813767,-3.48273 0.427304,-1.03864 2.279927,-1.75614 4.534466,-1.75614 2.254539,0 4.107162,0.7175 4.534466,1.75614 0.397369,0.96589 0.03118,2.53312 -0.813767,3.48273 -0.844941,0.94962 -2.519256,1.72659 -3.720699,1.72659 -1.201443,0 -2.875758,-0.77697 -3.720699,-1.72659 z M 19.076768,112.74937 c -1.065626,-1.41908 -1.937502,-4.05707 -1.937502,-5.86221 0,-1.80513 0.817687,-4.75695 1.817082,-6.55959 0.999396,-1.802637 2.81965,-3.518683 4.045008,-3.813437 1.225359,-0.294752 4.328218,-0.303998 6.895243,-0.02055 2.590073,0.285999 4.667316,1.156755 4.667316,1.956489 0,0.792616 -0.65318,3.216908 -1.451512,5.387318 -0.79833,2.1704 -2.825078,5.64402 -4.503883,7.71915 -1.678805,2.07512 -4.074296,3.77295 -5.323312,3.77295 -1.249017,0 -3.142815,-1.16106 -4.20844,-2.58013 z m 36.907585,0.24311 c -2.595707,-1.47615 -5.022225,-4.34265 -6.629685,-7.8318 -1.394502,-3.02691 -2.60136,-6.289701 -2.681907,-7.250649 -0.08055,-0.960949 1.912531,-5.793237 4.429062,-10.738417 2.516531,-4.945182 5.103769,-8.991239 5.749418,-8.991239 0.64565,0 2.481858,2.22024 4.080464,4.933868 1.866941,3.169124 5.510337,6.552202 10.186202,9.458408 l 7.279645,4.524541 -0.803194,5.647558 c -0.441757,3.10616 -1.113319,6.40138 -1.49236,7.32271 -0.37904,0.92133 -3.665493,2.4822 -7.30323,3.46859 -3.637735,0.98639 -7.087941,1.79149 -7.667125,1.7891 -0.579185,-0.002 -2.895464,-1.05208 -5.14729,-2.33267 z m 87.691057,1.56307 c -0.45636,-0.42566 -0.82975,-1.99289 -0.82975,-3.48273 0,-2.32182 0.62231,-2.70878 4.35617,-2.70878 3.36507,0 4.35616,0.47542 4.35616,2.08963 0,1.1493 -0.6721,2.71653 -1.49354,3.48273 -0.82145,0.7662 -2.40834,1.3931 -3.52642,1.3931 -1.11809,0 -2.40627,-0.34828 -2.86262,-0.77395 z M 91.068869,100.93252 c -0.376471,-0.91508 0.05776,-2.968965 0.96495,-4.564182 0.907193,-1.595217 6.404499,-6.815852 12.216231,-11.601413 5.81174,-4.785561 11.05583,-8.419109 11.65353,-8.074552 0.59771,0.344557 0.83564,3.450673 0.52876,6.902479 -0.39839,4.480983 -1.5956,7.652012 -4.18583,11.086963 -1.99531,2.646022 -5.02803,5.155795 -6.73938,5.577275 -1.71135,0.42147 -5.50604,1.11977 -8.432657,1.55177 -4.048191,0.59756 -5.484856,0.38744 -6.005604,-0.87834 z m 25.639821,-0.65401 c 0,-0.616035 1.16392,-1.701082 2.58649,-2.411214 1.42257,-0.710132 3.44592,-0.983535 4.49633,-0.607562 1.54152,0.551748 1.61339,1.016778 0.37266,2.411213 -0.84545,0.950193 -2.8688,1.727633 -4.49633,1.727633 -1.62753,0 -2.95915,-0.50403 -2.95915,-1.12007 z M 31.705806,86.186446 c 0.984424,-0.918216 2.024668,-0.928217 3.671623,-0.0353 2.014565,1.092222 1.845131,1.250261 -1.373592,1.281208 -2.677578,0.02575 -3.29974,-0.311569 -2.298031,-1.245908 z M 7.2924949,77.211476 C 6.5473609,75.912821 5.937706,73.976434 5.937706,72.908396 c 0,-1.441604 0.5611347,-1.694289 2.1780811,-0.98081 1.1979447,0.528594 4.9784709,0.922365 8.4011699,0.875048 3.422699,-0.04732 7.343245,-0.29331 8.712325,-0.546648 1.957127,-0.362153 2.489235,0.159786 2.489235,2.441659 0,2.686666 -0.462312,2.914602 -6.223089,3.068207 -3.422698,0.09126 -7.713726,0.535131 -9.535616,0.986375 -2.6031646,0.644747 -3.6026512,0.314801 -4.6673171,-1.540751 z M 73.769376,60.57604 c -1.36908,-0.704546 -3.936078,-2.531392 -5.704441,-4.059658 -2.149519,-1.857671 -5.346635,-3.014124 -9.645788,-3.48905 -3.53682,-0.390713 -6.430582,-1.099946 -6.430582,-1.576075 0,-0.47613 1.260175,-1.635612 2.80039,-2.576628 1.540214,-0.941016 9.663368,-4.458157 18.051451,-7.815867 14.089658,-5.640024 16.157606,-6.890192 27.155429,-16.416683 6.547405,-5.671464 12.679425,-10.311754 13.626715,-10.311754 1.46549,0 1.46433,0.735766 -0.007,4.933868 -0.95153,2.713627 -2.39206,7.09054 -3.20117,9.726473 -1.33404,4.346039 -1.21056,5.121323 1.32521,8.320452 2.18596,2.757827 2.61889,4.409993 1.98345,7.569406 -0.44708,2.222857 -1.99291,5.440829 -3.43517,7.151046 l -2.62228,3.109489 -3.54784,-3.623131 c -2.98749,-3.050906 -3.94449,-3.42512 -6.059376,-2.369392 -1.381352,0.689556 -3.291579,2.995056 -4.244949,5.123332 -0.95337,2.128276 -3.03734,4.721482 -4.631045,5.762679 -1.593704,1.041198 -5.153355,1.877202 -7.910334,1.857786 -2.757254,-0.01942 -6.13312,-0.611747 -7.5022,-1.316293 z m 55.205954,-4.151608 c -1.0862,-1.761992 -2.32219,-6.104448 -2.74665,-9.649903 -0.42444,-3.545455 -1.12218,-8.080746 -1.55052,-10.078425 -0.74385,-3.469151 -0.54631,-3.690539 4.40228,-4.933435 2.8496,-0.715711 5.50834,-2.096744 5.90831,-3.068963 0.39999,-0.972219 0.048,-3.88235 -0.78223,-6.466959 -1.03146,-3.211202 -1.10523,-5.076332 -0.23291,-5.889974 0.8723,-0.81364 2.23749,-0.603386 4.31119,0.66397 1.66907,1.02006 4.17115,3.579163 5.56019,5.686897 1.38903,2.107732 2.90579,5.745857 3.37055,8.084724 0.46477,2.338867 0.4721,5.348451 0.0163,6.687964 -0.4558,1.339515 -2.45267,3.218773 -4.43748,4.17613 -1.98481,0.957358 -4.27837,2.90769 -5.09679,4.334073 -0.81843,1.426384 -2.12219,4.912097 -2.89726,7.746031 -0.77508,2.833933 -1.95841,5.323355 -2.62963,5.532048 -0.67122,0.208695 -2.10913,-1.062186 -3.19535,-2.824178 z m 33.38802,-5.821782 c -2.24702,-1.297501 -4.54557,-4.424627 -6.39531,-8.700712 -1.58815,-3.671378 -2.39,-6.675233 -1.78188,-6.675233 0.60813,0 1.10568,0.517607 1.10568,1.150238 0,0.632631 1.88506,2.302816 4.18902,3.711522 2.30395,1.408706 5.38438,4.188485 6.8454,6.177287 1.46101,1.988801 2.65638,4.236687 2.65638,4.995303 0,0.758615 -0.7001,1.37655 -1.55577,1.373188 -0.85568,-0.0034 -3.13426,-0.917578 -5.06352,-2.031593 z"
       id="path6206"
       inkscape:connector-curvature="0" /><path
       style="fill:#574e41;stroke-width:1.20203543"
       d="m 75.27857,149.43615 c -0.487787,-0.45497 -0.886885,-1.78498 -0.886885,-2.95557 0,-1.66634 0.964373,-2.12833 4.442727,-2.12833 3.89537,0 4.393726,0.32181 4.045007,2.61204 -0.275146,1.80704 -1.371018,2.71793 -3.555841,2.95557 -1.736968,0.18894 -3.557221,-0.0287 -4.045008,-0.48371 z M 52.001719,136.82111 c -0.844941,-0.94961 -1.211136,-2.51684 -0.813767,-3.48273 0.427304,-1.03864 2.279927,-1.75614 4.534466,-1.75614 2.254539,0 4.107162,0.7175 4.534466,1.75614 0.397369,0.96589 0.03118,2.53312 -0.813767,3.48273 -0.844941,0.94962 -2.519256,1.72659 -3.720699,1.72659 -1.201443,0 -2.875758,-0.77697 -3.720699,-1.72659 z m 91.673691,-22.26556 c -0.45636,-0.42566 -0.82975,-1.99289 -0.82975,-3.48273 0,-2.32182 0.62231,-2.70878 4.35617,-2.70878 3.36507,0 4.35616,0.47542 4.35616,2.08963 0,1.1493 -0.6721,2.71653 -1.49354,3.48273 -0.82145,0.7662 -2.40834,1.3931 -3.52642,1.3931 -1.11809,0 -2.40627,-0.34828 -2.86262,-0.77395 z m -26.96672,-14.27704 c 0,-0.616035 1.16392,-1.701082 2.58649,-2.411214 1.42257,-0.710132 3.44592,-0.983535 4.49633,-0.607562 1.54152,0.551748 1.61339,1.016778 0.37266,2.411213 -0.84545,0.950193 -2.8688,1.727633 -4.49633,1.727633 -1.62753,0 -2.95915,-0.50403 -2.95915,-1.12007 z m 45.23617,-49.879878 c -2.51919,-1.432794 -4.23427,-3.541149 -4.78576,-5.883222 -0.47274,-2.007599 -0.52534,-3.961883 -0.11687,-4.342856 0.40844,-0.380972 2.00618,-0.06192 3.55051,0.708994 1.54435,0.770919 4.06386,3.111341 5.59892,5.200938 1.53505,2.089597 2.791,4.419953 2.791,5.178569 0,0.758615 -0.7001,1.377347 -1.55577,1.374961 -0.85567,-0.0024 -3.32258,-1.00921 -5.48201,-2.237384 z"
       id="path6204"
       inkscape:connector-curvature="0" /></g></svg>