<?xml version="1.0" encoding="UTF-8" standalone="no"?>
<!-- Generator: Adobe Illustrator 16.0.0, SVG Export Plug-In . SVG Version: 6.00 Build 0)  -->

<svg
   xmlns:dc="http://purl.org/dc/elements/1.1/"
   xmlns:cc="http://creativecommons.org/ns#"
   xmlns:rdf="http://www.w3.org/1999/02/22-rdf-syntax-ns#"
   xmlns:svg="http://www.w3.org/2000/svg"
   xmlns="http://www.w3.org/2000/svg"
   xmlns:sodipodi="http://sodipodi.sourceforge.net/DTD/sodipodi-0.dtd"
   xmlns:inkscape="http://www.inkscape.org/namespaces/inkscape"
   version="1.1"
   id="Layer_1"
   x="0px"
   y="0px"
   width="324.10999"
   height="324.10999"
   viewBox="0 0 324.10998 324.11"
   enable-background="new 0 0 124.995 324.11"
   xml:space="preserve"
   sodipodi:docname="mobile.svg"
   inkscape:version="0.92.1 r15371"><metadata
     id="metadata99"><rdf:RDF><cc:Work
         rdf:about=""><dc:format>image/svg+xml</dc:format><dc:type
           rdf:resource="http://purl.org/dc/dcmitype/StillImage" /><dc:title></dc:title></cc:Work></rdf:RDF></metadata><defs
     id="defs97" /><sodipodi:namedview
     pagecolor="#ffffff"
     bordercolor="#666666"
     borderopacity="1"
     objecttolerance="10"
     gridtolerance="10"
     guidetolerance="10"
     inkscape:pageopacity="0"
     inkscape:pageshadow="2"
     inkscape:window-width="1366"
     inkscape:window-height="702"
     id="namedview95"
     showgrid="false"
     inkscape:zoom="0.72814788"
     inkscape:cx="62.497501"
     inkscape:cy="162.05499"
     inkscape:window-x="0"
     inkscape:window-y="38"
     inkscape:window-maximized="1"
     inkscape:current-layer="Layer_1" /><g
     id="g92"
     transform="matrix(1.6067289,0,0,1,60.123921,-1.3733335)"><path
       stroke-miterlimit="10"
       d="m 124.495,74.688 c 0,-9.419 -6.677,-20.938 -14.884,-25.676 L 29.331,2.661 C 26.878,1.245 24.499,0.527 22.26,0.527 13.978,0.007 0.57,6.937 0.57,17.606 l 1.412,0.92 C 2.296,10.072 8.515,6.747 16.117,11.136 l 80.281,46.351 c 7.803,4.504 14.15,15.453 14.15,24.406 v 230.21 c 0,6.64 -3.493,10.342 -8.479,9.977 l 0.667,1.494 c 7.995,0.517 21.75,-4.404 21.75,-18.105 l -0.009,-0.009 c 0.005,-0.188 0.019,-0.37 0.019,-0.562 V 74.688 Z"
       id="path2"
       inkscape:connector-curvature="0"
       style="fill:#2c4257;stroke:#2c4257;stroke-miterlimit:10" /><path
       stroke-miterlimit="10"
       d="m 115.217,316.369 c -2.239,0 -4.619,-0.719 -7.071,-2.134 L 27.865,267.884 C 19.658,263.145 12.982,251.627 12.982,242.207 V 11.998 c 0,-6.968 3.642,-11.471 9.278,-11.471 2.239,0 4.619,0.718 7.071,2.134 l 80.281,46.351 c 8.207,4.738 14.884,16.256 14.884,25.676 v 230.21 c -10e-4,6.968 -3.642,11.471 -9.279,11.471 z"
       id="path4"
       inkscape:connector-curvature="0"
       style="fill:none;stroke:#2c4257;stroke-miterlimit:10" /><path
       stroke-miterlimit="10"
       d="m 119.928,141.351 -0.257,0.148 c -0.951,0.549 -1.723,-0.034 -1.723,-1.302 v -25.631 c 0,-1.269 0.771,-2.742 1.723,-3.291 l 0.257,-0.148 c 0.951,-0.549 1.723,0.034 1.723,1.302 v 25.631 c -10e-4,1.269 -0.772,2.742 -1.723,3.291 z"
       id="path6"
       inkscape:connector-curvature="0"
       style="fill:#2abbd4;stroke:#2c4257;stroke-miterlimit:10" /><path
       stroke-miterlimit="10"
       d="m 119.928,177.179 -0.257,0.148 c -0.951,0.549 -1.723,-0.034 -1.723,-1.303 v -25.631 c 0,-1.268 0.771,-2.741 1.723,-3.291 l 0.257,-0.148 c 0.951,-0.549 1.723,0.034 1.723,1.302 v 25.631 c -10e-4,1.269 -0.772,2.742 -1.723,3.292 z"
       id="path8"
       inkscape:connector-curvature="0"
       style="fill:#2abbd4;stroke:#2c4257;stroke-miterlimit:10" /><g
       id="g90"><g
         id="g26"><g
           id="g14"><path
             d="m 102.735,323.574 c -2.239,0 -4.618,-0.718 -7.071,-2.133 L 15.383,275.09 C 7.177,270.352 0.5,258.834 0.5,249.414 V 19.204 c 0,-6.968 3.642,-11.471 9.278,-11.471 2.239,0 4.619,0.718 7.071,2.134 L 97.13,56.218 c 8.206,4.738 14.883,16.256 14.883,25.676 v 230.21 c 10e-4,6.967 -3.641,11.47 -9.278,11.47 z"
             id="path10"
             inkscape:connector-curvature="0"
             style="fill:#2c4257" /><path
             stroke-miterlimit="10"
             d="m 102.735,323.574 c -2.239,0 -4.618,-0.718 -7.071,-2.133 L 15.383,275.09 C 7.177,270.352 0.5,258.834 0.5,249.414 V 19.204 c 0,-6.968 3.642,-11.471 9.278,-11.471 2.239,0 4.619,0.718 7.071,2.134 L 97.13,56.218 c 8.206,4.738 14.883,16.256 14.883,25.676 v 230.21 c 10e-4,6.967 -3.641,11.47 -9.278,11.47 z"
             id="path12"
             inkscape:connector-curvature="0"
             style="fill:none;stroke:#2c4257;stroke-miterlimit:10" /></g><path
           d="M 16.116,273.82 C 8.314,269.316 1.966,258.367 1.966,249.414 V 19.204 c 0,-8.953 6.348,-12.572 14.15,-8.067 l 80.281,46.351 c 7.803,4.504 14.15,15.453 14.15,24.406 v 230.21 c 0,8.953 -6.348,12.572 -14.15,8.067 z"
           id="path16"
           inkscape:connector-curvature="0"
           style="fill:#60ccf6" /><path
           stroke-miterlimit="10"
           d="m 64.182,287.646 c 0,5.022 -3.548,7.045 -7.925,4.519 -4.376,-2.527 -7.924,-8.646 -7.924,-13.669 0,-5.021 3.548,-7.045 7.924,-4.518 4.377,2.526 7.925,8.646 7.925,13.668 z"
           id="path18"
           inkscape:connector-curvature="0"
           style="fill:#2abbd4;stroke:#2c4257;stroke-miterlimit:10" /><g
           id="g24"><path
             stroke-miterlimit="10"
             d="m 44.574,43.732 c 0,0.782 -0.553,1.098 -1.235,0.704 -0.682,-0.394 -1.234,-1.347 -1.234,-2.129 0,-0.782 0.553,-1.098 1.234,-0.704 0.682,0.393 1.235,1.346 1.235,2.129 z"
             id="path20"
             inkscape:connector-curvature="0"
             style="fill:#2c4257;stroke:#2c4257;stroke-miterlimit:10" /><path
             stroke-miterlimit="10"
             d="M 69.446,58.833 51.13,48.259 c -0.199,-0.115 -0.321,-0.327 -0.321,-0.556 v 0 c 0,-0.495 0.535,-0.804 0.963,-0.557 l 18.315,10.575 c 0.199,0.115 0.321,0.327 0.321,0.557 v 0 c 0.001,0.493 -0.534,0.803 -0.962,0.555 z"
             id="path22"
             inkscape:connector-curvature="0"
             style="fill:#2c4257;stroke:#2c4257;stroke-miterlimit:10" /></g></g><g
         id="g88"><polygon
           points="105.82,296.304 6.694,239.073 6.694,37.486 105.82,94.717 "
           id="polygon28"
           style="fill:#feffff" /><g
           id="g32"><text
             transform="matrix(0.8715,0.5031,0,1,36.0127,148.5747)"
             font-size="80.2779"
             id="text30"
             style="font-size:80.2779007px;font-family:Lato-Bold;fill:#2c4257">$</text>
</g><g
           id="g72"><g
             id="g40"><path
               d="m 68.255,214.76 c 0,7.604 -5.372,10.666 -11.998,6.841 -6.626,-3.826 -11.998,-13.092 -11.998,-20.695 0,-7.603 5.372,-10.666 11.998,-6.84 6.626,3.825 11.998,13.09 11.998,20.694 z"
               id="path34"
               inkscape:connector-curvature="0"
               style="fill:#e44c3c" /><path
               d="m 64.415,212.543 c 0,5.17 -3.652,7.252 -8.158,4.65 -4.505,-2.601 -8.158,-8.9 -8.158,-14.07 0,-5.17 3.652,-7.253 8.158,-4.651 4.506,2.6 8.158,8.901 8.158,14.071 z"
               id="path36"
               inkscape:connector-curvature="0"
               style="fill:#feffff" /><path
               d="m 62.975,211.711 c 0,4.258 -3.008,5.973 -6.718,3.831 -3.71,-2.143 -6.718,-7.33 -6.718,-11.588 0,-4.258 3.008,-5.973 6.718,-3.83 3.71,2.142 6.718,7.33 6.718,11.587 z"
               id="path38"
               inkscape:connector-curvature="0"
               style="fill:#e44c3c" /></g><g
             id="g70"><g
               id="g54"><line
                 stroke-miterlimit="10"
                 x1="56.257"
                 y1="191.826"
                 x2="56.257"
                 y2="182.465"
                 id="line42"
                 style="fill:none;stroke:#2c4257;stroke-linecap:round;stroke-miterlimit:10" /><line
                 stroke-miterlimit="10"
                 x1="44.176998"
                 y1="192.855"
                 x2="37.112"
                 y2="184.09599"
                 id="line44"
                 style="fill:none;stroke:#2c4257;stroke-linecap:round;stroke-miterlimit:10" /><line
                 stroke-miterlimit="10"
                 x1="44.176998"
                 y1="208.86099"
                 x2="37.112"
                 y2="209.463"
                 id="line46"
                 style="fill:none;stroke:#2c4257;stroke-linecap:round;stroke-miterlimit:10" /><line
                 stroke-miterlimit="10"
                 x1="56.257"
                 y1="223.839"
                 x2="56.257"
                 y2="233.2"
                 id="line48"
                 style="fill:none;stroke:#2c4257;stroke-linecap:round;stroke-miterlimit:10" /><line
                 stroke-miterlimit="10"
                 x1="68.336998"
                 y1="222.811"
                 x2="75.402"
                 y2="231.569"
                 id="line50"
                 style="fill:none;stroke:#2c4257;stroke-linecap:round;stroke-miterlimit:10" /><line
                 stroke-miterlimit="10"
                 x1="68.336998"
                 y1="206.804"
                 x2="75.402"
                 y2="206.202"
                 id="line52"
                 style="fill:none;stroke:#2c4257;stroke-linecap:round;stroke-miterlimit:10" /></g><g
               id="g68"><line
                 stroke-miterlimit="10"
                 x1="51.261002"
                 y1="195.019"
                 x2="48.339001"
                 y2="187.52499"
                 id="line56"
                 style="fill:none;stroke:#2c4257;stroke-linecap:round;stroke-miterlimit:10" /><line
                 stroke-miterlimit="10"
                 x1="46.264999"
                 y1="202.063"
                 x2="40.422001"
                 y2="198.69"
                 id="line58"
                 style="fill:none;stroke:#2c4257;stroke-linecap:round;stroke-miterlimit:10" /><line
                 stroke-miterlimit="10"
                 x1="51.261002"
                 y1="214.87801"
                 x2="48.339001"
                 y2="218.998"
                 id="line60"
                 style="fill:none;stroke:#2c4257;stroke-linecap:round;stroke-miterlimit:10" /><line
                 stroke-miterlimit="10"
                 x1="61.252998"
                 y1="220.646"
                 x2="64.175003"
                 y2="228.14101"
                 id="line62"
                 style="fill:none;stroke:#2c4257;stroke-linecap:round;stroke-miterlimit:10" /><line
                 stroke-miterlimit="10"
                 x1="66.249001"
                 y1="213.60201"
                 x2="72.092003"
                 y2="216.976"
                 id="line64"
                 style="fill:none;stroke:#2c4257;stroke-linecap:round;stroke-miterlimit:10" /><line
                 stroke-miterlimit="10"
                 x1="61.252998"
                 y1="200.78799"
                 x2="64.175003"
                 y2="196.66701"
                 id="line66"
                 style="fill:none;stroke:#2c4257;stroke-linecap:round;stroke-miterlimit:10" /></g></g></g><polygon
           points="105.82,99.159 6.694,41.929 6.694,37.486 105.82,94.717 "
           id="polygon74"
           style="fill:#2abbd4" /><g
           id="g84"><polygon
             points="105.82,296.304 6.694,239.073 6.694,219.314 105.82,276.546 "
             id="polygon76"
             style="fill:#2abbd4" /><line
             stroke-miterlimit="10"
             x1="31.475"
             y1="233.62199"
             x2="31.475"
             y2="253.381"
             id="line78"
             style="fill:none;stroke:#feffff;stroke-width:0.68000001;stroke-miterlimit:10" /><line
             stroke-miterlimit="10"
             x1="56.257"
             y1="247.931"
             x2="56.257"
             y2="267.68799"
             id="line80"
             style="fill:none;stroke:#feffff;stroke-width:0.68000001;stroke-miterlimit:10" /><line
             stroke-miterlimit="10"
             x1="81.039001"
             y1="262.23801"
             x2="81.039001"
             y2="281.996"
             id="line82"
             style="fill:none;stroke:#feffff;stroke-width:0.68000001;stroke-miterlimit:10" /></g><polygon
           points="6.694,37.486 6.694,239.073 105.82,296.304 105.82,294.727 7.694,238.073 7.694,38.063 "
           id="polygon86"
           style="fill:#2c4257" /></g></g></g></svg>